# xmcd
#
# Track frame offsets:
#	150
#	12090
#	25084
#	32731
#	45031
#	56333
#	65437
#	70988
#	83383
#	94429
#	103677
#	115845
#
# Disc length: 1708 seconds
#
# Revision: 1
# Processed by: cddbd v1.4PL0 Copyright (c) Steve Scherf et al.
# Submitted via: audiograbber 1.81.03
#
DISCID=8906aa0c
DTITLE=Choeur Montjoie Saint Denis - Chants d'Europe II
DYEAR=1900
DGENRE=
TTITLE0=La cavalcade
TTITLE1=Le clan
TTITLE2=Le cygne de Montfort
TTITLE3=Honneur et fidélité
TTITLE4=Je t'aime O ma Patrie
TTITLE5=Voguons au vent de mer
TTITLE6=Les hussards de Bercheny
TTITLE7=Réveillez-vous Picards
TTITLE8=O sari Mares
TTITLE9=Un gai luron des Flandres
TTITLE10=La mort
TTITLE11=Adieu vieille Europe
EXTD=
EXTT0=
EXTT1=
EXTT2=
EXTT3=
EXTT4=
EXTT5=
EXTT6=
EXTT7=
EXTT8=
EXTT9=
EXTT10=
EXTT11=
PLAYORDER=
